<?xml version="1.0" encoding="utf-8"?>
<!-- Generator: Adobe Illustrator 22.1.0, SVG Export Plug-In . SVG Version: 6.00 Build 0)  -->
<svg version="1.1" id="Capa_1" xmlns="http://www.w3.org/2000/svg" xmlns:xlink="http://www.w3.org/1999/xlink" x="0px" y="0px"
	 viewBox="0 0 100 71" style="enable-background:new 0 0 100 71;" xml:space="preserve">
<style type="text/css">
	.st0{fill:#009EE2;}
	.st1{fill:#E5007E;}
	.st2{fill:#FFEC00;}
	.st3{fill:#FFFFFF;}
</style>
<g>
	<g>
		<path class="st0" d="M59.1,19.9c-1.5,0-2.7-1.2-2.7-2.7c0-1.5,1.2-2.7,2.7-2.7c1.5,0,2.7,1.2,2.7,2.7
			C61.8,18.7,60.6,19.9,59.1,19.9"/>
		<path class="st1" d="M59.1,29.8c-1.5,0-2.7-1.2-2.7-2.7c0-1.5,1.2-2.7,2.7-2.7c1.5,0,2.7,1.2,2.7,2.7
			C61.8,28.6,60.6,29.8,59.1,29.8"/>
		<path class="st2" d="M59.1,39.6c-1.5,0-2.7-1.2-2.7-2.7c0-1.5,1.2-2.7,2.7-2.7c1.5,0,2.7,1.2,2.7,2.7
			C61.8,38.4,60.6,39.6,59.1,39.6"/>
		<path class="st3" d="M55.3,16.7v2.1H56v-2.1c0.1-2.6,3.1-2.5,3.1-2.5v-0.5H52v0.5C52,14.2,55.2,14,55.3,16.7"/>
		<path class="st3" d="M56,35.5v-0.6l-5.9-9.1l-2.6-4.1l-5.3-8.2h-6.2v0.6c0.1,0,0.4,0,0.6,0c0.1,0,0.1,0,0.2,0
			c0.8,0.1,1.6,0.3,2.2,0.8c0.7,0.5,1.1,1.2,1.6,1.9v0c0.3,0.4,0.6,0.9,0.9,1.4c0.4,0.6,0.7,1.2,1.1,1.8c0.5,0.7,0.9,1.4,1.4,2.1
			l1.5,2.4c0.5,0.8,1.1,1.6,1.6,2.5c0.5,0.8,1.1,1.7,1.6,2.5l1.6,2.4c0.5,0.8,1,1.5,1.5,2.3l1.3,2c0.4,0.5,0.7,1.1,1,1.6l0.7,1.1
			c0.1,0.2,0.2,0.4,0.3,0.5h0H56v-1.2c-0.2-0.4-0.3-0.9-0.3-1.4C55.7,36.4,55.8,35.9,56,35.5"/>
		<path class="st3" d="M39.9,37.1c0-0.2-0.1-0.4-0.1-0.6v-2.1h-0.7v2.1c0,0.2,0,0.4-0.1,0.6c-0.5,2.1-2.9,2-2.9,2v0.5h6.8v-0.5
			C42.9,39.1,40.4,39.2,39.9,37.1"/>
	</g>
	<g>
		<polygon class="st3" points="16,52.5 16,44.6 16.9,44.6 20.8,50.2 20.8,44.6 21.9,44.6 21.9,52.5 21,52.5 17.1,47 17.1,52.5 		"/>
		<polygon class="st3" points="23.8,51.4 27.5,51.4 27.5,52.5 22.6,52.5 22.6,44.6 27.5,44.6 27.5,45.7 23.8,45.7 23.8,48 27.4,48 
			27.4,49.1 23.8,49.1 		"/>
		<path class="st3" d="M32.5,48.8c-0.5,1.3-0.9,2.6-1.4,3.9h-0.9l-2.6-8h1.2l1.9,5.7l1.3-3.7h0.9l1.3,3.7c0.6-1.9,1.3-3.9,1.9-5.7
			h1.2l-2.6,8h-0.9L32.5,48.8z"/>
		<path class="st3" d="M45.2,47c-0.2-0.4-0.4-0.8-0.8-1.1c-0.7-0.7-1.6-1.1-2.6-1.1c-1,0-2,0.4-2.6,1.1c-0.7,0.7-1.1,1.6-1.1,2.7
			c0,1,0.4,2,1.1,2.7c0.7,0.7,1.6,1.1,2.6,1.1c1,0,2-0.4,2.6-1.1c0.3-0.3,0.6-0.7,0.8-1.1h0.2c-0.2,0.5-0.5,0.9-0.8,1.2
			c-0.7,0.7-1.7,1.2-2.8,1.2c-1.1,0-2-0.4-2.8-1.2c-0.7-0.7-1.1-1.7-1.1-2.8c0-1.1,0.4-2.1,1.1-2.8c0.7-0.7,1.7-1.2,2.8-1.2
			c1.1,0,2,0.4,2.8,1.2c0.3,0.4,0.6,0.8,0.8,1.2H45.2z"/>
		<path class="st3" d="M46.4,52.5h-0.2v-7.9v-0.1h0.1H49c3.2,0,3.2,4.6,0,4.6h-1.3l3.7,3.3h-0.3l-3.7-3.3v-0.2H49c3,0,3-4.3,0-4.3
			h-2.6V52.5z"/>
		<polygon class="st3" points="52.4,52.4 56.7,52.4 56.7,52.5 52.3,52.5 52.3,52.5 52.3,44.6 56.6,44.6 56.6,44.8 52.4,44.8 
			52.4,48.5 56.5,48.5 56.5,48.7 52.4,48.7 		"/>
		<path class="st3" d="M62.2,49.9h-4l-1.1,2.7h-0.2l3.2-8.1h0.2l3.2,8.1h-0.2L62.2,49.9z M58.2,49.7h3.9l-1.9-5L58.2,49.7z"/>
		<polygon class="st3" points="65.2,52.5 65.2,44.8 62.4,44.8 62.4,44.6 68.1,44.6 68.1,44.8 65.4,44.8 65.4,52.5 		"/>
		<polygon class="st3" points="72.1,44.8 70.4,44.8 70.4,52.4 72.1,52.4 72.1,52.5 68.5,52.5 68.5,52.4 70.2,52.4 70.2,44.8 
			68.5,44.8 68.5,44.6 72.1,44.6 		"/>
		<polygon class="st3" points="78.8,44.6 79,44.6 75.8,52.7 75.6,52.7 72.4,44.6 72.6,44.6 75.7,52.4 		"/>
		<polygon class="st3" points="79.8,52.4 84,52.4 84,52.5 79.6,52.5 79.6,52.5 79.6,44.6 84,44.6 84,44.8 79.8,44.8 79.8,48.5 
			83.9,48.5 83.9,48.7 79.8,48.7 		"/>
		<path class="st3" d="M33.8,56.8c0,0.1-0.1,0.1-0.1,0.2c-0.3,0.3-0.6,0.4-1.1,0.4c-0.4,0-0.8-0.1-1-0.4c-0.3-0.3-0.4-0.6-0.4-1
			c0-0.4,0.1-0.8,0.4-1.1c0.3-0.3,0.6-0.4,1-0.4c0.4,0,0.8,0.1,1.1,0.4c0.1,0.1,0.1,0.1,0.2,0.2v-0.4H34v2.1c0,0.4-0.1,0.7-0.4,1
			c-0.3,0.3-0.6,0.4-1,0.4c-0.4,0-0.8-0.1-1.1-0.4c-0.1-0.1-0.1-0.1-0.2-0.2l0.3-0.1c0,0,0.1,0.1,0.1,0.1c0.2,0.2,0.5,0.4,0.9,0.4
			c0.3,0,0.6-0.1,0.9-0.4C33.7,57.4,33.8,57.1,33.8,56.8 M33.8,55.7c0-0.2-0.2-0.4-0.3-0.6c-0.2-0.2-0.5-0.4-0.9-0.4
			c-0.3,0-0.6,0.1-0.9,0.4c-0.2,0.2-0.4,0.5-0.4,0.9c0,0.3,0.1,0.6,0.4,0.9c0.2,0.2,0.5,0.4,0.9,0.4c0.3,0,0.6-0.1,0.9-0.4
			c0.2-0.2,0.3-0.4,0.3-0.6V55.7z"/>
		<path class="st3" d="M38.6,54.9c-0.2,0-0.3,0.1-0.5,0.3c-0.2,0.2-0.3,0.4-0.3,0.6v1.5h-0.2v-2.7h0.2v0.6c0.1-0.3,0.3-0.5,0.6-0.6
			L38.6,54.9z"/>
		<path class="st3" d="M44.9,57.4h-0.2v-0.5c0,0.1-0.1,0.1-0.2,0.2c-0.3,0.3-0.6,0.4-1.1,0.4c-0.4,0-0.8-0.1-1-0.4
			c-0.3-0.3-0.4-0.6-0.4-1c0-0.4,0.1-0.8,0.4-1.1c0.3-0.3,0.6-0.4,1-0.4c0.4,0,0.8,0.1,1.1,0.4c0.1,0.1,0.1,0.1,0.2,0.2v-0.4h0.2
			V57.4z M44.6,56.2v-0.5c0-0.2-0.2-0.4-0.3-0.6c-0.2-0.2-0.5-0.4-0.9-0.4c-0.3,0-0.6,0.1-0.9,0.4c-0.2,0.2-0.4,0.5-0.4,0.9
			c0,0.3,0.1,0.6,0.4,0.9c0.2,0.2,0.5,0.4,0.9,0.4c0.3,0,0.6-0.1,0.9-0.4C44.5,56.6,44.6,56.4,44.6,56.2"/>
		<path class="st3" d="M48.6,54.7h0.2v0.4c0-0.1,0.1-0.1,0.2-0.2c0.3-0.3,0.6-0.4,1-0.4c0.4,0,0.8,0.1,1.1,0.4
			c0.3,0.3,0.4,0.6,0.4,1.1c0,0.4-0.1,0.8-0.4,1c-0.3,0.3-0.6,0.4-1.1,0.4c-0.4,0-0.8-0.1-1-0.4c-0.1-0.1-0.1-0.1-0.2-0.2v1.6h-0.2
			V54.7z M48.8,55.7v0.5c0,0.2,0.2,0.4,0.3,0.6c0.2,0.2,0.5,0.4,0.9,0.4c0.3,0,0.6-0.1,0.9-0.4c0.2-0.2,0.4-0.5,0.4-0.9
			c0-0.3-0.1-0.6-0.4-0.9c-0.2-0.2-0.5-0.4-0.9-0.4c-0.3,0-0.6,0.1-0.9,0.4C49,55.3,48.8,55.5,48.8,55.7"/>
		<path class="st3" d="M55.1,53h0.2v1.8c0.2-0.2,0.5-0.3,0.7-0.3c0.3,0,0.6,0.1,0.8,0.3c0.2,0.2,0.3,0.4,0.3,0.7v1.8h-0.2v-1.8
			c0-0.2-0.1-0.4-0.2-0.6c-0.2-0.2-0.4-0.2-0.6-0.2c-0.2,0-0.4,0.1-0.6,0.2c-0.1,0.1-0.1,0.1-0.2,0.2v2.1h-0.2V53z"/>
		<path class="st3" d="M61.2,53.8c0,0,0.1,0.1,0.1,0.2c0,0.1,0,0.1-0.1,0.2c0,0-0.1,0.1-0.2,0.1c-0.1,0-0.1,0-0.2-0.1
			c0,0-0.1-0.1-0.1-0.2c0-0.1,0-0.1,0.1-0.2c0,0,0.1-0.1,0.2-0.1C61.1,53.8,61.1,53.8,61.2,53.8 M61.1,57.4h-0.2v-2.7h0.2V57.4z"/>
		<path class="st3" d="M67.2,56.7l0.3,0.1c0,0.1-0.1,0.1-0.2,0.2c-0.3,0.3-0.6,0.4-1.1,0.4c-0.4,0-0.8-0.1-1-0.4
			c-0.3-0.3-0.4-0.6-0.4-1.1c0-0.4,0.1-0.8,0.4-1c0.3-0.3,0.6-0.4,1-0.4c0.4,0,0.8,0.1,1.1,0.4c0.1,0.1,0.1,0.1,0.2,0.2l-0.3,0.1
			c0,0-0.1-0.1-0.1-0.1c-0.2-0.2-0.5-0.4-0.9-0.4c-0.3,0-0.6,0.1-0.9,0.4C65.1,55.3,65,55.6,65,56c0,0.3,0.1,0.6,0.4,0.9
			c0.2,0.2,0.5,0.4,0.9,0.4C66.6,57.2,66.9,57.1,67.2,56.7C67.1,56.8,67.2,56.8,67.2,56.7"/>
	</g>
</g>
</svg>
