<?xml version="1.0" encoding="utf-8"?>
<!-- Generator: Adobe Illustrator 22.1.0, SVG Export Plug-In . SVG Version: 6.00 Build 0)  -->
<svg version="1.1" id="Capa_1" xmlns="http://www.w3.org/2000/svg" xmlns:xlink="http://www.w3.org/1999/xlink" x="0px" y="0px"
	 viewBox="0 0 100 71" style="enable-background:new 0 0 100 71;" xml:space="preserve">
<style type="text/css">
	.st0{fill:#009EE2;}
	.st1{fill:#E5007E;}
	.st2{fill:#FFEC00;}
	.st3{fill:#FFFFFF;}
</style>
<g>
	<g>
		<path class="st0" d="M62.5,13.8c-2,0-3.7-1.7-3.7-3.7c0-2,1.7-3.7,3.7-3.7c2,0,3.7,1.7,3.7,3.7C66.2,12.2,64.6,13.8,62.5,13.8"/>
		<path class="st1" d="M62.5,27.4c-2,0-3.7-1.7-3.7-3.7c0-2,1.7-3.7,3.7-3.7c2,0,3.7,1.7,3.7,3.7C66.2,25.7,64.6,27.4,62.5,27.4"/>
		<path class="st2" d="M62.5,41c-2,0-3.7-1.7-3.7-3.7c0-2,1.7-3.7,3.7-3.7c2,0,3.7,1.7,3.7,3.7C66.2,39.3,64.6,41,62.5,41"/>
		<path class="st3" d="M57.3,9.4v2.9h1V9.3c0.2-3.6,4.2-3.5,4.2-3.5V5.1h-9.7v0.7C52.8,5.9,57.2,5.7,57.3,9.4"/>
		<path class="st3" d="M58.3,35.3v-0.8L50.2,22l-3.6-5.6L39.3,5.1h-8.5v0.8c0.2,0,0.5,0,0.8,0c0.1,0,0.2,0,0.3,0
			c1.1,0.2,2.2,0.4,3,1.1c1,0.7,1.5,1.7,2.2,2.6v0c0.4,0.6,0.8,1.2,1.2,1.9c0.5,0.8,1,1.7,1.6,2.4c0.6,1,1.3,2,1.9,2.9l2.1,3.3
			c0.7,1.1,1.5,2.3,2.2,3.4c0.7,1.1,1.5,2.3,2.3,3.5l2.2,3.3c0.7,1.1,1.4,2.1,2,3.1l1.8,2.7c0.5,0.7,1,1.5,1.4,2.2l1,1.6
			c0.1,0.2,0.3,0.5,0.4,0.7h0h1.1v-1.7c-0.3-0.6-0.4-1.3-0.4-2C57.9,36.6,58,35.9,58.3,35.3"/>
		<path class="st3" d="M36,37.6c0-0.3-0.1-0.6-0.1-0.9v-2.8h-1v2.8c0,0.3,0,0.6-0.1,0.9c-0.6,2.8-4.1,2.7-4.1,2.7V41h9.4v-0.7
			C40.2,40.3,36.7,40.4,36,37.6"/>
	</g>
	<g>
		<polygon class="st3" points="3.1,58.8 3.1,47.8 4.3,47.8 9.7,55.6 9.7,47.8 11.3,47.8 11.3,58.8 10,58.8 4.7,51.1 4.7,58.8 		"/>
		<polygon class="st3" points="13.9,57.2 19,57.2 19,58.8 12.3,58.8 12.3,47.8 19,47.8 19,49.4 13.9,49.4 13.9,52.5 18.8,52.5 
			18.8,54.1 13.9,54.1 		"/>
		<path class="st3" d="M25.8,53.6c-0.6,1.8-1.3,3.7-1.9,5.3h-1.2l-3.7-11h1.6l2.6,7.9l1.8-5.1h1.3l1.8,5.1c0.9-2.6,1.8-5.4,2.6-7.9
			h1.7l-3.7,11h-1.2L25.8,53.6z"/>
		<path class="st3" d="M43.4,51.2c-0.3-0.6-0.6-1.1-1-1.5c-0.9-1-2.2-1.5-3.6-1.5c-1.4,0-2.7,0.6-3.6,1.5c-0.9,1-1.5,2.3-1.5,3.7
			c0,1.4,0.6,2.7,1.5,3.7c0.9,1,2.2,1.6,3.6,1.6c1.4,0,2.7-0.6,3.6-1.6c0.4-0.4,0.8-0.9,1-1.5h0.3c-0.3,0.6-0.7,1.2-1.1,1.7
			c-1,1-2.3,1.6-3.8,1.6c-1.5,0-2.8-0.6-3.8-1.6c-1-1-1.6-2.4-1.6-3.9c0-1.5,0.6-2.9,1.6-3.9c1-1,2.3-1.6,3.8-1.6
			c1.5,0,2.8,0.6,3.8,1.6c0.5,0.5,0.9,1.1,1.1,1.7H43.4z"/>
		<path class="st3" d="M45,58.8h-0.2V48v-0.1h0.1h3.7c4.4,0,4.4,6.4,0,6.4h-1.8l5,4.6h-0.4l-5-4.6V54h2.1c4.1,0,4.1-5.9,0-5.9H45
			V58.8z"/>
		<polygon class="st3" points="53.4,58.6 59.2,58.6 59.2,58.8 53.1,58.8 53.1,58.8 53.1,47.9 59.2,47.9 59.2,48.1 53.4,48.1 
			53.4,53.2 59,53.2 59,53.4 53.4,53.4 		"/>
		<path class="st3" d="M66.8,55.1h-5.5l-1.5,3.7h-0.3l4.4-11.1h0.3l4.4,11.1h-0.3L66.8,55.1z M61.4,54.9h5.3L64,48L61.4,54.9z"/>
		<polygon class="st3" points="70.9,58.8 70.9,48.1 67.1,48.1 67.1,47.8 75,47.8 75,48.1 71.2,48.1 71.2,58.8 		"/>
		<polygon class="st3" points="80.4,48.1 78.1,48.1 78.1,58.6 80.4,58.6 80.4,58.8 75.5,58.8 75.5,58.6 77.9,58.6 77.9,48.1 
			75.5,48.1 75.5,47.9 80.4,47.9 		"/>
		<polygon class="st3" points="89.7,47.9 90,47.9 85.6,59 85.3,59 80.9,47.9 81.2,47.9 85.4,58.7 		"/>
		<polygon class="st3" points="91.1,58.6 96.9,58.6 96.9,58.8 90.8,58.8 90.8,58.8 90.8,47.9 96.8,47.9 96.8,48.1 91.1,48.1 
			91.1,53.2 96.7,53.2 96.7,53.4 91.1,53.4 		"/>
		<path class="st3" d="M27.7,64.7c-0.1,0.1-0.1,0.2-0.2,0.2c-0.4,0.4-0.9,0.6-1.5,0.6c-0.6,0-1-0.2-1.4-0.6
			c-0.4-0.4-0.6-0.9-0.6-1.4c0-0.6,0.2-1.1,0.6-1.5c0.4-0.4,0.9-0.6,1.4-0.6c0.6,0,1.1,0.2,1.5,0.6c0.1,0.1,0.1,0.2,0.2,0.2v-0.5H28
			v2.8c0,0.6-0.2,1-0.6,1.4c-0.4,0.4-0.9,0.6-1.4,0.6c-0.6,0-1-0.2-1.5-0.6c-0.1-0.1-0.2-0.2-0.2-0.3l0.4-0.1c0,0,0.1,0.1,0.1,0.1
			c0.3,0.3,0.7,0.5,1.2,0.5c0.5,0,0.9-0.2,1.2-0.5C27.5,65.5,27.6,65.1,27.7,64.7 M27.7,63.2c-0.1-0.3-0.2-0.6-0.5-0.8
			c-0.3-0.3-0.7-0.5-1.2-0.5c-0.5,0-0.9,0.2-1.2,0.5c-0.3,0.3-0.5,0.7-0.5,1.2c0,0.5,0.2,0.9,0.5,1.2c0.3,0.3,0.7,0.5,1.2,0.5
			c0.5,0,0.9-0.2,1.2-0.5c0.2-0.2,0.4-0.5,0.5-0.8V63.2z"/>
		<path class="st3" d="M34.3,62.1c-0.2,0-0.5,0.2-0.7,0.5c-0.2,0.3-0.3,0.5-0.3,0.8v2.1h-0.3v-3.7h0.3v0.8c0.1-0.4,0.4-0.6,0.9-0.8
			L34.3,62.1z"/>
		<path class="st3" d="M43,65.5h-0.3v-0.7c-0.1,0.1-0.1,0.2-0.2,0.2c-0.4,0.4-0.9,0.6-1.5,0.6c-0.6,0-1-0.2-1.4-0.6
			c-0.4-0.4-0.6-0.9-0.6-1.4c0-0.6,0.2-1.1,0.6-1.5c0.4-0.4,0.9-0.6,1.4-0.6c0.6,0,1.1,0.2,1.5,0.6c0.1,0.1,0.1,0.2,0.2,0.2v-0.5H43
			V65.5z M42.6,63.8v-0.7c-0.1-0.3-0.2-0.6-0.5-0.9c-0.3-0.3-0.7-0.5-1.2-0.5c-0.5,0-0.9,0.2-1.2,0.5c-0.3,0.3-0.5,0.7-0.5,1.2
			c0,0.5,0.2,0.9,0.5,1.2c0.3,0.3,0.7,0.5,1.2,0.5c0.5,0,0.9-0.2,1.2-0.5C42.4,64.5,42.6,64.2,42.6,63.8"/>
		<path class="st3" d="M48,61.8h0.3v0.5c0.1-0.1,0.1-0.2,0.2-0.2c0.4-0.4,0.9-0.6,1.4-0.6c0.6,0,1,0.2,1.4,0.6
			c0.4,0.4,0.6,0.9,0.6,1.5c0,0.6-0.2,1-0.6,1.4c-0.4,0.4-0.9,0.6-1.4,0.6c-0.6,0-1-0.2-1.4-0.6c-0.1-0.1-0.1-0.2-0.2-0.2v2.1H48
			V61.8z M48.3,63.2v0.7c0.1,0.3,0.2,0.6,0.5,0.8c0.3,0.3,0.7,0.5,1.2,0.5c0.5,0,0.9-0.2,1.2-0.5c0.3-0.3,0.5-0.7,0.5-1.2
			c0-0.5-0.2-0.9-0.5-1.2c-0.3-0.3-0.7-0.5-1.2-0.5c-0.5,0-0.9,0.2-1.2,0.5C48.6,62.6,48.4,62.8,48.3,63.2"/>
		<path class="st3" d="M57,59.5h0.3V62c0.3-0.3,0.6-0.4,1-0.4c0.4,0,0.8,0.1,1.1,0.4c0.3,0.3,0.4,0.6,0.4,1v2.5h-0.3V63
			c0-0.3-0.1-0.6-0.3-0.8c-0.2-0.2-0.5-0.3-0.8-0.3c-0.3,0-0.6,0.1-0.8,0.3c-0.1,0.1-0.2,0.2-0.2,0.3v2.9H57V59.5z"/>
		<path class="st3" d="M65.4,60.6c0.1,0.1,0.1,0.1,0.1,0.2c0,0.1,0,0.2-0.1,0.2c-0.1,0.1-0.1,0.1-0.2,0.1c-0.1,0-0.2,0-0.2-0.1
			c-0.1-0.1-0.1-0.1-0.1-0.2c0-0.1,0-0.2,0.1-0.2c0.1-0.1,0.1-0.1,0.2-0.1C65.3,60.5,65.3,60.5,65.4,60.6 M65.3,65.5H65v-3.7h0.3
			V65.5z"/>
		<path class="st3" d="M73.7,64.6l0.4,0.1c-0.1,0.1-0.1,0.2-0.2,0.3c-0.4,0.4-0.9,0.6-1.5,0.6c-0.6,0-1-0.2-1.4-0.6
			c-0.4-0.4-0.6-0.9-0.6-1.5c0-0.6,0.2-1,0.6-1.4c0.4-0.4,0.9-0.6,1.4-0.6c0.6,0,1.1,0.2,1.5,0.6c0.1,0.1,0.2,0.2,0.2,0.3l-0.4,0.1
			c0,0-0.1-0.1-0.1-0.1c-0.3-0.3-0.7-0.5-1.2-0.5c-0.5,0-0.9,0.2-1.2,0.5c-0.3,0.3-0.5,0.7-0.5,1.2c0,0.5,0.2,0.9,0.5,1.2
			c0.3,0.3,0.7,0.5,1.2,0.5c0.5,0,0.9-0.2,1.2-0.5C73.6,64.7,73.7,64.6,73.7,64.6"/>
	</g>
</g>
</svg>
